<?xml version="1.0" encoding="UTF-8"?>
<svg width="1cm" height="1cm" version="1.1" viewBox="0 0 10 10" xmlns="http://www.w3.org/2000/svg">
 <g transform="translate(0 -287)">
  <path d="m5.834 287.1-2.439 1.398-0.3691-1.01-1.295 2.495-0.8567-0.65 0.259 2.799-1.072-0.084 1.73 2.215-0.9471 0.5095 2.653 0.9273-0.5208 0.94 2.733-0.6542 0.06986 1.073 1.946-2.028 0.6387 0.8645 0.5399-2.758 1.006 0.3818-1.037-2.613 1.052-0.2216-2.284-1.637 0.765-0.7551-2.807-0.1426zm-0.3641 2.714-0.1157 0.5159 1.38 0.0699-0.3761 0.3712 1.123 0.8052-0.5173 0.1087 0.5095 1.284-0.494-0.1877-0.2653 1.356-0.314-0.4248-0.9562 0.9972-0.03458-0.5279-1.344 0.3218 0.2562-0.4622-1.304-0.4559 0.4651-0.2505-0.8504-1.088 0.5265 0.0409-0.127-1.375 0.4213 0.319 0.6365-1.226 0.1814 0.4961z" fill="#ee1028"/>
 </g>
</svg>
