<svg width="100%" height="100%" viewBox="0 0 24 24" style="fill-rule:evenodd;clip-rule:evenodd;stroke-miterlimit:10;">
  <clipPath id="_clip1"><rect id="icons-toolbar-001" x="1.354" y="-19.5" width="84" height="63"/></clipPath>
  <g clip-path="url(#_clip1)"><g id="Toolbar">
    <g id="Ruler"><rect x="1.354" y="22.5" width="21" height="21" style="fill:none;"/>
      <path d="M4.854,29.5l0,3" style="fill:none;fill-rule:nonzero;stroke:black;stroke-width:1px;"/>
      <path d="M6.854,29.5l0,4" style="fill:none;fill-rule:nonzero;stroke:black;stroke-width:1px;"/>
      <path d="M8.854,29.5l0,3" style="fill:none;fill-rule:nonzero;stroke:black;stroke-width:1px;"/>
      <path d="M10.854,29.5l0,4" style="fill:none;fill-rule:nonzero;stroke:black;stroke-width:1px;"/>
      <path d="M12.854,29.5l0,3" style="fill:none;fill-rule:nonzero;stroke:black;stroke-width:1px;"/>
      <path d="M14.854,29.5l0,4" style="fill:none;fill-rule:nonzero;stroke:black;stroke-width:1px;"/>
      <path d="M16.854,29.5l0,3" style="fill:none;fill-rule:nonzero;stroke:black;stroke-width:1px;"/>
      <path d="M18.854,29.5l0,4" style="fill:none;fill-rule:nonzero;stroke:black;stroke-width:1px;"/>
    </g>
    <g id="Zoom_out"></g>
    <g id="Zoom_in"></g>
    <g id="Poly_tool_three">
      <rect x="22.354" y="1.5" width="21" height="21" style="fill:none;"/>
      <path d="M35.354,6.5l-7,7l9,4l1.328,-6.92" style="fill:none;fill-rule:nonzero;stroke:black;stroke-width:1.4px;"/>
      <circle cx="28.354" cy="13.5" r="2" style="fill:#fff;stroke:black;stroke-width:0.8px;"/>
    </g>
    <g id="Poly_tool_four">
      <path d="M14.354,7.5l-8,-1l3,11l8,-2l2,-6.445" style="fill:none;fill-rule:nonzero;stroke:black;stroke-width:1.4px;"/>
      <circle cx="6.354" cy="6.5" r="2" style="fill:#fff;stroke:black;stroke-width:0.8px;"/>
      <circle cx="14.354" cy="7.5" r="2" style="fill:#fff;stroke:black;stroke-width:0.8px;"/>
      <circle cx="9.354" cy="17.5" r="2" style="fill:#fff;stroke:black;stroke-width:0.8px;"/>
      <circle cx="17.354" cy="15.5" r="2" style="fill:#fff;stroke:black;stroke-width:0.8px;"/>
      <rect x="1.354" y="1.5" width="21" height="21" style="fill:none;"/>
    </g>
    <g id="Pan_tool"></g>
    <g id="Pin_tool"></g>
    <g id="blacko_arrow"><rect x="22.354" y="-19.5" width="21" height="21" style="fill:none;"/></g>
    <g id="Undo_arrow"><rect x="1.354" y="-19.5" width="21" height="21" style="fill:none;"/></g>
  </g>
  </g>
  </svg>
